<?xml version="1.0" encoding="UTF-8" standalone="no"?>
<!-- Created with Inkscape (http://www.inkscape.org/) -->

<svg
   version="1.1"
   id="svg1"
   width="1103.0101"
   height="236.84502"
   viewBox="0 0 1103.0101 236.84502"
   xmlSpace="preserve"
   xmlns="http://www.w3.org/2000/svg"
   xmlnsSsvg="http://www.w3.org/2000/svg"><defs
     id="defs1" /><g
     id="g1"
     transform="translate(-775.46198,-197.72522)"><g
       id="g3"
       transform="translate(704.26593,16.699205)"><g
         id="g2"
         transform="translate(-11.61759,-256.61236)"><path
           id="rect1"
           style="fill:#fddb00;stroke-width:4.01938;stroke-miterlimit:10"
           d="M 366.42062,437.63837 H 538.37634 V 634.68634 H 366.42062 Z" /><path
           id="rect2"
           style="fill:#0a4e99;fill-opacity:1;stroke-width:4;stroke-miterlimit:10"
           d="M 101.10701,501.84503 H 475.27675 V 651.66052 H 101.10701 Z" /><path
           style="fill:#0a4e99;fill-opacity:1"
           d="m 82.813644,576.98339 v -97.5 H 192.1481 c 60.13396,0 153.95896,-0.29925 208.5,-0.665 l 99.16554,-0.66499 v 98.16499 98.165 h -208.5 -208.499996 z m 349.383146,58.46338 c 12.0515,-3.72233 20.64218,-11.9551 25.79904,-24.72417 2.29883,-5.69222 2.31781,-6.09128 2.31781,-48.73921 v -43 h -11.5 -11.5 l -0.5,41 -0.5,41 -2.5,4.99335 c -1.58403,3.16384 -4.08872,6.09496 -6.83614,8 -4.01947,2.78707 -4.96887,3.00407 -13,2.97139 -11.88479,-0.0484 -17.08755,-2.97609 -21.26219,-11.96474 -1.7106,-3.68317 -1.85949,-7.14203 -1.87971,-43.66821 -0.0121,-21.81752 -0.2951,-40.38002 -0.62895,-41.25 -0.90185,-2.35019 -22.88417,-2.35019 -23.78602,0 -0.9691,2.52542 -0.686,69.09923 0.33145,77.94589 2.617,22.75448 15.04107,36.00355 37.01216,39.46987 7.6812,1.21185 21.01071,0.2582 28.43255,-2.03417 z m -256.92883,-0.56055 c 1.41956,-1.41956 1.5881,-6.77343 1.5156,-48.14417 -0.0449,-25.60085 0.2922,-46.92078 0.74905,-47.37763 0.45685,-0.45685 8.46947,-0.95447 17.80583,-1.10583 l 16.9752,-0.2752 v -9.5 -9.5 l -48.22854,-0.25959 -48.22854,-0.25959 -0.65095,2.59358 c -0.65466,2.60836 0.25368,15.04324 1.21216,16.59408 0.28265,0.45734 7.65054,0.83152 16.3731,0.83152 8.72256,0 16.571,0.27314 17.44098,0.60699 1.41147,0.54163 1.58179,5.68864 1.58179,47.8 0,35.37234 0.30057,47.49358 1.2,48.39301 1.93542,1.93542 20.24856,1.60858 22.25432,-0.39717 z m 74.61142,0.56199 c 1.8508,-0.99052 1.93426,-2.42305 1.93426,-33.2 0,-17.7055 0.38161,-31.73776 0.84889,-31.21482 0.46689,0.5225 3.46332,8.375 6.65874,17.45 12.89896,36.6331 16.59269,46.44492 17.76488,47.18958 2.13113,1.35386 17.17114,0.93772 19.17927,-0.53066 1.00872,-0.73759 3.27248,-5.57509 5.03058,-10.75 8.76254,-25.79226 19.06191,-53.90892 19.74728,-53.90892 0.4237,0 0.77036,14.1382 0.77036,31.41821 0,17.28002 0.27314,32.13002 0.60699,33 0.49578,1.29198 2.38451,1.58179 10.30887,1.58179 6.18709,0 10.31849,-0.45285 11.40391,-1.25 1.57381,-1.15584 1.68237,-5.58132 1.44112,-58.75 l -0.26089,-57.5 -13.60492,-0.27728 c -10.12469,-0.20634 -13.85955,0.0495 -14.60032,1 -0.95027,1.21936 -3.3882,7.8528 -14.43522,39.27728 -10.78473,30.67833 -15.19767,42.5 -15.86495,42.5 -0.64276,0 -8.2119,-20.3099 -24.22435,-65 l -6.27024,-17.5 h -14 -14 l -0.2582,57.93591 c -0.20361,45.68638 0.008,58.1048 1,58.73469 1.84337,1.17027 18.56145,1.00506 20.82394,-0.20578 z"
           id="path1" /></g><path
         style="fill:#ffffff;stroke-width:0.350925"
         d="m 392.23233,380.70286 c -10.65054,-1.71783 -18.28457,-5.1431 -24.50737,-11.75167 -6.74571,-7.16391 -10.2678,-16.15172 -11.30971,-28.86067 -0.19803,-2.41553 -0.34149,-19.46146 -0.34324,-40.76953 l -0.003,-36.61841 0.91672,-1.0124 0.91674,-1.01242 h 9.59549 9.59547 l 0.90653,1.00114 0.90652,1.00112 0.0997,39.33695 c 0.0994,39.19913 0.10226,39.34667 0.84507,42.11755 2.32064,8.65731 7.01264,13.95537 13.8309,15.6174 3.3388,0.81387 11.8552,1.05093 15.26172,0.58449 10.73784,-1.47027 15.34765,-7.62156 16.96605,-20.24589 0.39339,-3.06871 0.48713,-10.79476 0.49254,-40.58905 l 0.007,-36.79889 0.91673,-1.0124 0.91674,-1.01242 h 9.59983 9.59984 l 0.75171,0.84663 0.75174,0.84664 -0.0975,40.39384 -0.0975,40.39387 -0.79007,3.97063 c -1.9588,9.84428 -4.99499,15.99496 -10.95838,22.19948 -6.31861,6.57412 -12.52785,9.8395 -23.60567,11.38976 -4.45194,0.62303 -16.6775,0.70797 -21.16429,-0.0157 z m -250.53398,-2.10237 -0.74178,-0.83545 V 330.52138 283.2777 l -0.91674,-1.01241 -0.91675,-1.01241 h -17.37343 -16.08194 l -0.74179,-0.83543 c -0.71795,-0.80858 -0.74179,-1.10671 -0.74179,-9.27516 v -8.43971 l 0.91674,-1.0124 0.91673,-1.01242 h 46.02674 48.79428 l 0.91673,1.01242 0.91673,1.0124 v 8.4903 c 0,8.40807 -0.008,8.49789 -0.78961,9.27514 -0.78758,0.78286 -0.83053,0.78486 -16.82807,0.78486 h -17.699 l -0.7418,0.83544 -0.7418,0.83544 v 47.47122 47.47123 l -0.7896,0.78485 c -0.77258,0.76794 -3.39772,0.78487 -12.91508,0.78487 -9.72638,0 -9.72703,-5e-5 -10.46877,-0.83544 z m 75.95922,0 -0.7418,-0.83545 v -57.53123 -57.53123 l 0.91674,-1.0124 0.91674,-1.01242 h 9.40285 l 15.70214,0.1845 0.97354,1.17392 c 0,0 20.44336,55.78369 31.57206,83.46518 0,0 0.76659,-4.92299 14.81283,-41.41731 10.88897,-28.29128 16.22473,-41.73563 16.833,-42.41364 l 0.89057,-0.99265 h 11.98362 11.98361 l 0.91674,1.01242 0.91673,1.0124 v 57.58182 57.58181 l -0.78961,0.78485 c -0.77324,0.7686 -0.99465,0.78487 -10.68714,0.78487 h -11.00458 l -0.74179,-0.83544 -0.74179,-0.83545 v -32.91498 c 0,-32.05424 -0.0169,-32.91498 -0.64582,-32.91498 -0.35521,0 -0.72181,0.20305 -0.81469,0.45121 -0.0928,0.24817 -11.01791,32.75776 -11.01791,32.75776 0,0 -10.87693,33.0217 -11.7469,33.29922 l -3.11182,0.99266 h -8.91315 -8.91316 l -0.89774,-0.99266 c -0.61249,-0.67725 -11.56054,-34.22173 -11.56054,-34.22173 0,0 -10.92411,-31.58708 -11.01798,-31.83525 -0.0938,-0.24816 -0.46133,-0.45121 -0.81654,-0.45121 -0.62894,0 -0.53818,21.97547 -0.64582,32.96557 -0.10763,10.98799 0,32.96556 0,32.96556 l -0.7896,0.78485 c -0.77325,0.76859 -4.50019,0.78487 -14.19271,0.78487 h -7.28829 z"
         id="path2" /></g></g><path
     style="display:none;fill:#0a4e99;fill-opacity:1"
     d="m 532.72645,161.17997 c -15.15349,-2.89617 -26.10167,-14.41911 -29.4811,-31.0288 -1.49782,-7.36173 -1.2578,-19.44514 0.52039,-26.19786 2.21463,-8.410098 7.41293,-16.793707 13.14514,-21.199926 7.20519,-5.538462 15.10609,-7.974777 25.53498,-7.873941 17.13573,0.165682 29.0911,8.290811 32.93118,22.380754 1.05074,3.855373 0.56819,4.264823 -5.01469,4.254993 -2.58383,-0.005 -4.96209,-0.18679 -5.28501,-0.40498 -0.32291,-0.21819 -1.39556,-2.050257 -2.38365,-4.071273 -4.11782,-8.422463 -13.27107,-12.612692 -24.43873,-11.187693 -13.65362,1.74221 -21.73504,10.814166 -23.66063,26.560696 -2.20428,18.02554 4.69654,32.63158 17.59215,37.23497 4.92743,1.75897 12.6139,2.00966 17.36561,0.56637 6.62799,-2.01319 10.20424,-5.12738 12.9823,-11.30492 2.19172,-4.87371 2.36175,-4.98685 7.49494,-4.98685 5.47328,0 6.29067,0.54749 5.57471,3.73396 -2.71164,12.06866 -12.21804,21.19783 -24.52594,23.55272 -5.02771,0.96196 -13.23682,0.94934 -18.35165,-0.0282 z m 91.56844,-0.009 c -3.78483,-1.05507 -5.98844,-2.44738 -8.63866,-5.45818 -2.98296,-3.38883 -4.0974,-6.9058 -4.08195,-12.88192 0.0105,-4.08084 0.23727,-5.34317 1.41461,-7.87623 1.81828,-3.91203 4.46839,-6.51162 8.67888,-8.51342 5.75149,-2.73444 10.56269,-3.22057 25.80179,-2.60704 l 2.42985,0.0978 -0.0345,-4.04976 c -0.0676,-7.93854 -2.76903,-9.96323 -12.85937,-9.63798 -7.27994,0.23466 -9.30143,1.12319 -10.60907,4.66311 -0.45924,1.24323 -1.0909,2.51632 -1.40367,2.8291 -0.3416,0.3416 -2.59775,0.50623 -5.64998,0.41229 -4.95967,-0.15266 -5.08584,-0.18871 -5.27175,-1.50632 -0.31026,-2.19893 0.93909,-6.59255 2.53246,-8.90599 2.05317,-2.98101 6.63653,-6.03537 11.14601,-7.42774 2.97757,-0.919356 5.18124,-1.173756 10.27057,-1.185662 10.69358,-0.02502 16.90625,2.634632 20.62469,8.829462 3.20759,5.34378 3.5678,8.26291 3.82264,30.9784 0.17456,15.55919 0.0723,20.58723 -0.43106,21.19373 -0.8605,1.03684 -9.29252,1.13685 -10.13266,0.12018 -0.30677,-0.37122 -0.73168,-1.60555 -0.94425,-2.74294 -0.21256,-1.1374 -0.71605,-2.19446 -1.11885,-2.34903 -0.40281,-0.15457 -1.85504,0.70717 -3.22719,1.91499 -3.67816,3.23765 -7.4933,4.53072 -13.99299,4.74267 -3.65717,0.11926 -6.34388,-0.0871 -8.32556,-0.63954 z m 16.50869,-10.77523 c 3.76242,-1.11732 7.08122,-3.66499 8.31534,-6.38326 1.23159,-2.71271 1.43418,-8.56047 0.32836,-9.47821 -1.15983,-0.96258 -8.93971,-1.83506 -13.04706,-1.46318 -5.5754,0.5048 -7.70772,1.23764 -10.10354,3.47245 -1.75587,1.63786 -2.20464,2.4705 -2.43552,4.51882 -0.57598,5.11013 0.89275,7.98971 4.79598,9.4029 2.54082,0.91992 8.93791,0.88331 12.14644,-0.0695 z m 47.40315,10.97533 c -9.3388,-1.71148 -16.32817,-9.71035 -15.79563,-18.07706 l 0.16695,-2.62301 5.04908,-0.15598 c 5.36131,-0.16562 6.56022,0.23854 6.56022,2.21148 0,2.2932 2.11082,5.54753 4.45478,6.86811 1.82842,1.03013 3.28249,1.3351 7.15452,1.50054 8.95303,0.38255 13.21654,-2.40227 12.56244,-8.20548 -0.51701,-4.58686 -2.60911,-5.82423 -14.18234,-8.38816 -15.29156,-3.38768 -20.50161,-8.0607 -20.51349,-18.39904 -0.006,-5.09037 1.03893,-7.90167 4.14303,-11.14809 5.25484,-5.495763 18.66587,-7.598636 28.69829,-4.49994 7.87711,2.43299 13.22179,8.98891 12.67613,15.54886 l -0.16545,1.98906 h -5.64752 -5.64753 l -0.33334,-1.61991 c -0.95348,-4.63343 -3.74203,-6.18008 -11.17431,-6.19776 -5.37894,-0.0128 -8.94475,0.96784 -9.88109,2.71741 -0.28832,0.53873 -0.52422,2.16494 -0.52422,3.61382 0,4.54492 2.66034,6.24244 13.37458,8.53408 12.64634,2.7049 16.95822,5.02122 19.75382,10.61164 1.3081,2.61585 1.54778,3.76626 1.58997,7.63169 0.0447,4.09202 -0.12636,4.90914 -1.69412,8.09372 -2.568,5.21635 -7.05684,8.36179 -14.04764,9.84352 -3.98404,0.84444 -12.37494,0.92062 -16.57713,0.1505 z m 55.2543,-0.21099 c -8.65481,-2.09801 -13.35814,-6.85849 -15.07017,-15.25329 -1.0067,-4.93633 -0.73057,-5.20039 5.63653,-5.38998 5.7623,-0.17159 5.83044,-0.13216 6.53699,3.78307 0.82327,4.56206 4.98972,6.9183 12.16005,6.87685 7.98162,-0.0461 11.72233,-2.50124 11.56603,-7.59102 -0.14926,-4.86062 -2.32849,-6.44075 -11.79721,-8.55396 -14.34167,-3.20076 -18.63122,-5.52605 -21.67653,-11.75044 -1.89348,-3.87014 -2.0308,-9.83583 -0.31575,-13.71698 3.46777,-7.84754 14.3232,-11.979309 26.81465,-10.206147 10.2302,1.452177 16.58463,6.780297 17.90051,15.009407 0.55608,3.47753 -0.0804,3.89475 -5.94201,3.89475 -5.25413,0 -6.2515,-0.39828 -6.2515,-2.49642 0,-1.77653 -2.48798,-4.41344 -4.75943,-5.04432 -2.56994,-0.71378 -10.05583,-0.71212 -12.62997,0.003 -3.75433,1.04271 -5.29017,4.96145 -3.38694,8.64189 1.21827,2.35587 4.97617,3.97356 13.63786,5.87078 9.04794,1.98182 12.65287,3.45264 15.98078,6.5202 3.33901,3.07779 4.39291,6.01278 4.36412,12.15353 -0.0195,4.16817 -0.22488,5.24878 -1.44296,7.59381 -2.55606,4.92087 -7.48453,8.32154 -14.12646,9.74734 -4.2647,0.91549 -13.24076,0.86754 -17.19859,-0.0919 z m 159.76144,-0.0157 c -13.86852,-3.35723 -21.57704,-15.5911 -20.70796,-32.86472 0.49766,-9.89128 3.03506,-16.41182 8.53766,-21.93988 5.29644,-5.32094 12.87752,-7.919157 21.30941,-7.303259 12.78425,0.933811 21.22773,8.201559 24.53031,21.114549 1.25125,4.89235 1.58493,13.32149 0.57549,14.53779 -0.60371,0.72742 -3.41076,0.85842 -21.01975,0.98096 l -20.323,0.14143 -0.1756,1.84065 c -0.38699,4.05648 3.27057,9.783 7.69831,12.05299 2.79871,1.43483 9.07033,1.90342 12.52598,0.9359 2.39681,-0.67107 3.63801,-1.68892 7.86019,-6.44579 1.39822,-1.57528 1.61468,-1.63416 6.00852,-1.63416 5.95739,0 6.27977,0.35326 4.68789,5.13688 -1.40872,4.2332 -5.44841,8.95675 -9.5859,11.20865 -5.41862,2.94918 -14.95985,3.92326 -21.92155,2.23801 z m 20.89203,-36.12104 c 1.70875,-1.70874 -0.52371,-8.64202 -3.77597,-11.72695 -2.3998,-2.27631 -5.07116,-3.1338 -9.75243,-3.13044 -5.2477,0.004 -7.43078,0.60014 -10.02241,2.73795 -2.51748,2.07665 -4.12991,5.13816 -4.54296,8.62569 -0.52059,4.39563 -0.86137,4.29241 14.1706,4.29241 10.86377,0 13.26209,-0.13757 13.92317,-0.79866 z m 41.12598,36.22809 c -3.93987,-0.9581 -7.87742,-3.29056 -11.25225,-6.66538 -11.15096,-11.15097 -11.35499,-35.81932 -0.39528,-47.79295 8.50253,-9.289119 23.60977,-10.464042 32.61582,-2.53661 1.30667,1.15017 2.52977,1.93721 2.71801,1.74897 0.18824,-0.18824 0.34225,-6.853805 0.34225,-14.812378 0,-16.786608 -0.46678,-15.588064 6.07093,-15.588064 6.75584,0 6.05534,-4.673522 6.22674,41.541482 0.082,22.00494 -0.055,40.79523 -0.3028,41.75619 l -0.4513,1.74722 -4.47418,0.15767 c -2.62975,0.0927 -4.76181,-0.081 -5.17184,-0.4213 -0.3837,-0.31844 -0.97111,-1.66507 -1.30536,-2.9925 -0.6704,-2.66241 -1.5087,-3.00902 -3.07334,-1.27075 -1.81528,2.01673 -5.29769,4.11983 -8.29637,5.01034 -3.3878,1.00607 -9.3799,1.05946 -13.25103,0.11806 z m 15.99071,-12.02772 c 5.25537,-2.93455 7.35741,-7.47634 7.90235,-17.07428 0.62341,-10.97991 -3.29872,-19.33786 -10.01959,-21.35148 -2.58045,-0.77312 -8.31713,-0.82251 -10.93894,-0.0942 -2.47806,0.68839 -6.09305,3.79136 -7.7579,6.65907 -1.51563,2.61068 -3.01031,9.30958 -2.99679,13.43109 0.0116,3.54581 1.23392,9.45904 2.51378,12.16123 1.37646,2.90618 5.00243,6.33087 7.78241,7.35041 3.87029,1.41941 9.89962,0.93676 13.51468,-1.08186 z m 47.15511,12.14747 c -9.3388,-1.71148 -16.3282,-9.71035 -15.7956,-18.07706 l 0.1669,-2.62301 5.0491,-0.15598 c 5.3613,-0.16562 6.5602,0.23854 6.5602,2.21148 0,2.2932 2.1108,5.54753 4.4548,6.86811 1.8284,1.03013 3.2825,1.3351 7.1545,1.50054 8.9531,0.38255 13.2166,-2.40227 12.5625,-8.20548 -0.517,-4.58686 -2.6091,-5.82423 -14.1824,-8.38816 -15.2915,-3.38768 -20.5016,-8.0607 -20.5135,-18.39904 -0.01,-5.09037 1.039,-7.90167 4.1431,-11.14809 5.2548,-5.495763 18.6658,-7.598636 28.6983,-4.49994 7.8771,2.43299 13.2217,8.98891 12.6761,15.54886 l -0.1655,1.98906 h -5.6475 -5.6475 l -0.3334,-1.61991 c -0.9534,-4.63343 -3.742,-6.18008 -11.1743,-6.19776 -5.3789,-0.0128 -8.9447,0.96784 -9.8811,2.71741 -0.2883,0.53873 -0.5242,2.16494 -0.5242,3.61382 0,4.54492 2.6604,6.24244 13.3746,8.53408 12.6463,2.7049 16.9582,5.02122 19.7538,10.61164 1.3081,2.61585 1.5478,3.76626 1.59,7.63169 0.045,4.09202 -0.1264,4.90914 -1.6941,8.09372 -2.568,5.21635 -7.0569,8.36179 -14.0477,9.84352 -3.984,0.84444 -12.3749,0.92062 -16.5771,0.1505 z m -439.41323,-0.81126 c -0.19799,-0.19799 -0.35998,-19.14231 -0.35998,-42.09848 0,-48.038844 -0.73649,-42.856422 6.09044,-42.856422 3.1909,0 4.18261,0.200047 4.89521,0.98746 0.81503,0.900603 0.89364,4.595808 0.89364,42.009472 0,31.18606 -0.15537,41.17738 -0.64796,41.66998 -0.68966,0.68966 -10.21729,0.94205 -10.87135,0.28799 z m 199.13579,-0.31499 c -0.14208,-0.37122 -0.1952,-13.91766 -0.11804,-30.10319 l 0.14029,-29.42823 h 5.66966 5.66966 l 0.13968,29.36726 c 0.10102,21.23902 -0.0294,29.57095 -0.47109,30.10319 -0.82802,0.9977 -10.65085,1.052 -11.03016,0.061 z m 33.93708,0 c -0.24026,-0.37122 -0.55833,-11.48781 -0.70682,-24.70351 l -0.26999,-24.02856 -4.7001,-0.26999 c -2.58506,-0.14849 -4.96461,-0.53556 -5.28789,-0.86016 -0.35778,-0.35922 -0.52588,-2.36656 -0.42959,-5.12969 l 0.1582,-4.53951 4.56281,-0.15858 c 2.50955,-0.0872 4.84224,-0.39047 5.18376,-0.673903 0.34151,-0.283433 0.77786,-2.726157 0.96966,-5.428276 0.55029,-7.752447 2.98301,-11.663746 8.99258,-14.458175 2.6185,-1.21759 3.83461,-1.406095 10.28002,-1.593473 6.04541,-0.17575 7.42732,-0.07138 7.9872,0.603235 0.45495,0.548179 0.6253,2.294109 0.51934,5.32282 l -0.15767,4.507066 -6.20963,0.269984 c -6.21179,0.270078 -8.22021,0.828383 -8.84594,2.459017 -0.18343,0.478013 -0.33351,2.420097 -0.33351,4.315743 0,2.854948 0.1793,3.542586 1.04444,4.005595 0.6576,0.351927 7.4503,0.558957 18.3399,0.558957 16.54688,0 17.31965,0.0452 17.85443,1.04444 0.76964,1.43809 0.76964,56.9494 0,58.3875 -0.49197,0.91924 -1.16929,1.04443 -5.65067,1.04443 -4.48137,0 -5.15869,-0.12519 -5.65066,-1.04443 -0.36015,-0.67295 -0.55896,-9.20391 -0.55896,-23.9844 0,-12.61698 -0.14749,-23.32431 -0.32776,-23.79407 -0.28493,-0.74252 -1.85819,-0.85412 -12.04127,-0.85412 -8.39057,0 -11.89735,0.18382 -12.36149,0.64796 -0.48415,0.48416 -0.64796,6.59961 -0.64796,24.19055 0,17.59095 -0.16381,23.7064 -0.64796,24.19055 -0.90785,0.90785 -10.47453,0.88451 -11.06447,-0.027 z m -33.946,-70.757256 c -0.15501,-0.403955 -0.21141,-3.024596 -0.12534,-5.823649 l 0.15651,-5.089186 5.18316,-0.153561 c 3.98528,-0.118073 5.33163,0.02535 5.82563,0.620576 0.42292,0.509592 0.58918,2.499562 0.4865,5.823222 l -0.15597,5.049084 -5.54433,0.153988 c -4.28549,0.119025 -5.60831,-0.01277 -5.82616,-0.580474 z m 71.39688,0.336491 c -0.65406,-0.65406 -0.40167,-10.181693 0.28799,-10.871348 0.41072,-0.41072 2.47963,-0.647961 5.65066,-0.647961 5.96696,0 6.12063,0.149128 6.12063,5.939644 0,5.832788 -0.11529,5.939643 -6.40861,5.939643 -2.90988,0 -5.45268,-0.16199 -5.65067,-0.359978 z"
     id="path3" /><path
     style="fill:#0a4e99;fill-opacity:1;stroke-width:0.58349"
     d="m 532.56433,161.38628 c -11.96247,-1.84348 -22.26638,-9.33643 -27.50788,-20.0036 -7.99578,-16.27251 -6.48506,-38.47472 3.5415,-52.047154 4.65267,-6.29809 12.66664,-11.36478 21.26696,-13.44564 5.99221,-1.44983 17.30019,-1.32584 23.16858,0.25403 11.78814,3.17358 19.44582,10.06919 22.34355,20.12 0.53696,1.86243 0.83053,3.766064 0.65239,4.230294 -0.25975,0.67689 -1.83528,0.84407 -7.95473,0.84407 h -7.63082 l -0.99397,-1.808864 c -3.6665,-6.67247 -7.90415,-9.45205 -15.49464,-10.16334 -12.97885,-1.21622 -22.41782,5.2941 -25.81761,17.807104 -1.6116,5.93153 -1.47671,17.663 0.26837,23.33962 3.45513,11.23935 11.10848,16.92122 22.7925,16.92122 8.78991,0 13.61445,-2.59421 16.98261,-9.13174 l 2.05917,-3.99679 7.33717,-0.16267 c 9.10486,-0.20186 9.33082,-0.0496 7.84684,5.288 -2.92314,10.51393 -10.81997,18.12793 -21.95451,21.16815 -4.00113,1.09249 -15.99424,1.54416 -20.90548,0.78731 z m 99.14609,-0.002 c -8.96061,-1.75651 -14.47894,-8.06969 -15.07289,-17.24399 -0.50745,-7.83805 2.0488,-13.62662 7.63801,-17.29611 5.47673,-3.59564 7.77191,-4.11995 18.49476,-4.22497 l 9.6276,-0.0943 0.17296,-2.90966 c 0.26988,-4.53995 -0.94804,-5.64489 -6.53292,-5.92691 -6.51838,-0.32917 -8.36353,0.15681 -9.79279,2.57923 l -1.19441,2.02436 -7.94865,-0.1619 c -9.11518,-0.18566 -8.95748,-0.0722 -7.42491,-5.34399 2.9495,-10.14593 16.3146,-15.677054 31.80722,-13.163374 8.58775,1.393354 13.90059,5.751894 16.43231,13.480694 1.37848,4.20822 1.40241,4.64969 1.40241,25.87042 v 21.58915 l -7.16451,0.16397 -7.16452,0.16396 -1.00435,-1.76488 c -1.24699,-2.19124 -1.75288,-2.19695 -5.12593,-0.0578 -4.32876,2.74522 -10.62348,3.59535 -17.14939,2.31611 z m 16.10508,-15.15826 c 3.07117,-1.48673 4.87414,-4.24383 4.87414,-7.45352 0,-3.57502 -1.65615,-4.44524 -8.41471,-4.4215 -6.03804,0.0212 -8.5187,0.95026 -9.95536,3.72845 -1.72922,3.34396 -0.67555,7.23966 2.30994,8.54044 2.76674,1.20546 8.28347,1.01121 11.18599,-0.39387 z m 50.38639,15.12903 c -4.18805,-0.69184 -9.74815,-3.3226 -12.74553,-6.03055 -3.17802,-2.87116 -5.44986,-7.58778 -5.55361,-11.53001 l -0.0808,-3.07028 8.03495,-0.16242 c 7.27379,-0.14703 8.0655,-0.0641 8.35734,0.87524 1.13643,3.65792 2.00231,4.77964 4.1498,5.37599 2.83209,0.78645 9.16417,0.79124 11.98063,0.009 2.40792,-0.66873 3.36193,-1.94543 3.36193,-4.49907 0,-2.87485 -2.02505,-4.1382 -8.2204,-5.12842 -6.83899,-1.0931 -13.31416,-2.83128 -16.38692,-4.39888 -3.23052,-1.64809 -7.33431,-5.54841 -8.82032,-8.383 -1.80834,-3.44945 -1.77471,-10.66195 0.0673,-14.43052 2.65388,-5.42959 8.46375,-9.11698 16.27412,-10.328794 7.91996,-1.22882 15.74639,-0.53993 21.84476,1.922804 4.08422,1.64936 6.21802,3.34562 8.66582,6.88888 1.57215,2.27573 1.91192,3.33291 1.96907,6.12665 l 0.0691,3.37636 h -7.85989 c -7.80179,0 -7.86524,-0.0108 -8.58397,-1.45873 -1.03456,-2.08421 -3.32635,-2.86104 -8.52933,-2.89113 -5.23189,-0.0303 -7.77923,0.95694 -8.35136,3.23652 -0.91333,3.63901 2.67719,6.20789 9.69319,6.93513 5.63463,0.58404 13.04028,2.4266 16.21116,4.0334 3.45507,1.75082 7.31513,5.84616 8.28759,8.79271 1.08502,3.28765 0.51421,11.10299 -1.02933,14.09324 -1.71682,3.32592 -6.57584,7.51963 -10.34775,8.93087 -6.0472,2.26255 -15.00272,2.94643 -22.45752,1.71495 z m 60.68301,0 c -4.18806,-0.69184 -9.74816,-3.3226 -12.74553,-6.03055 -3.17803,-2.87116 -5.44987,-7.58778 -5.55362,-11.53001 l -0.0808,-3.07028 8.03496,-0.16242 c 7.27378,-0.14703 8.0655,-0.0641 8.35733,0.87524 1.13643,3.65792 2.00231,4.77964 4.14981,5.37599 2.83208,0.78645 9.16417,0.79124 11.98062,0.009 2.40792,-0.66873 3.36194,-1.94543 3.36194,-4.49907 0,-2.87485 -2.02505,-4.1382 -8.22041,-5.12842 -6.83899,-1.0931 -13.31416,-2.83128 -16.38691,-4.39888 -3.23053,-1.64809 -7.33432,-5.54841 -8.82033,-8.383 -1.80834,-3.44945 -1.7747,-10.66195 0.0673,-14.43052 2.65387,-5.42959 8.46375,-9.11698 16.27411,-10.328794 7.91997,-1.22882 15.7464,-0.53993 21.84476,1.922804 4.08423,1.64936 6.21802,3.34562 8.66583,6.88888 1.57214,2.27573 1.91192,3.33291 1.96907,6.12665 l 0.0691,3.37636 h -7.85989 c -7.80179,0 -7.86524,-0.0108 -8.58397,-1.45873 -1.03456,-2.08421 -3.32635,-2.86104 -8.52932,-2.89113 -5.2319,-0.0303 -7.77923,0.95694 -8.35137,3.23652 -0.91333,3.63901 2.67719,6.20789 9.6932,6.93513 5.63463,0.58404 13.04028,2.4266 16.21115,4.0334 3.45507,1.75082 7.31514,5.84616 8.28759,8.79271 1.08502,3.28765 0.51421,11.10299 -1.02933,14.09324 -1.71682,3.32592 -6.57583,7.51963 -10.34774,8.93087 -6.0472,2.26255 -15.00272,2.94643 -22.45752,1.71495 z m 176.79757,0 c -10.45259,-1.7267 -19.37585,-10.38534 -21.9246,-21.27445 -1.20654,-5.15454 -1.20654,-13.9804 0,-19.13495 2.55861,-10.93129 10.35521,-18.9128 20.59401,-21.082394 20.86351,-4.42098 36.99253,9.585074 36.2166,31.449624 l -0.16833,4.74341 -19.54693,0.31149 c -10.75081,0.17133 -19.61257,0.36826 -19.6928,0.43762 -0.45209,0.39086 -0.0292,3.32581 0.67393,4.67715 1.96099,3.769 6.04887,5.9518 11.14624,5.9518 3.61362,0 7.42801,-1.57989 8.45711,-3.50285 0.57544,-1.07517 1.22498,-1.16507 8.41773,-1.16507 6.34872,0 7.8557,0.16041 8.12609,0.86495 0.41165,1.07273 -0.94484,5.01022 -2.8402,8.2444 -4.57386,7.80474 -16.45413,11.62757 -29.45885,9.47927 z m 16.36959,-37.59048 c 0.62247,-0.74996 0.61966,-1.29876 -0.0152,-3.06332 -1.2125,-3.36913 -2.25794,-4.62647 -4.91702,-5.91371 -4.92437,-2.38385 -11.19181,-1.21903 -14.12373,2.62493 -1.78869,2.34505 -2.51263,5.98788 -1.33789,6.73173 0.44835,0.28388 5.04982,0.52017 10.2255,0.52509 7.83621,0.007 9.53709,-0.14389 10.16848,-0.90472 z m 46.078,37.35924 c -8.26969,-2.31956 -14.21359,-8.14916 -17.95563,-17.61047 -1.45978,-3.69091 -1.56469,-4.56238 -1.56469,-13.00021 0,-8.43784 0.10491,-9.3093 1.56469,-13.00021 3.86066,-9.76117 9.82271,-15.44803 18.53942,-17.683594 6.71045,-1.72104 15.05285,-0.27076 19.95635,3.469264 1.1112,0.84753 2.3237,1.54096 2.6946,1.54096 0.4912,0 0.6743,-3.77137 0.6743,-13.887064 0,-10.02307 0.1948,-14.0819 0.7002,-14.58726 0.465,-0.465 2.9989,-0.70019 7.5437,-0.70019 5.4434,0 7.0311,0.18759 7.7604,0.91691 0.816,0.81597 0.9169,5.3812 0.9169,41.466174 0,26.8358 -0.2043,40.93096 -0.604,41.67789 -0.5459,1.01993 -1.2808,1.12862 -7.6323,1.12862 h -7.0283 l -0.9168,-2.33396 c -0.5043,-1.28368 -1.1132,-2.33396 -1.3532,-2.33396 -0.24,0 -1.7892,0.91042 -3.4427,2.02316 -1.6535,1.11274 -3.9774,2.30999 -5.1643,2.66056 -3.7536,1.10883 -11.1819,1.23697 -14.68864,0.25338 z m 15.24504,-14.28777 c 4.9249,-1.36789 8.2728,-7.97367 8.2728,-16.32291 0,-8.34925 -3.3479,-14.95502 -8.2728,-16.32292 -5.9821,-1.66157 -12.489,0.0683 -15.11398,4.01805 -4.10679,6.17942 -4.10679,18.43032 0,24.60974 2.62498,3.94977 9.13188,5.67962 15.11398,4.01804 z m 54.4575,14.33613 c -7.0472,-1.28062 -13.325,-5.50737 -16.0169,-10.78404 -1.5632,-3.06397 -2.4187,-8.59093 -1.4538,-9.39174 0.4364,-0.36212 3.6959,-0.53486 8.2267,-0.43596 l 7.504,0.16378 0.6576,2.03457 c 1.0556,3.26593 3.0562,4.34509 8.5145,4.59297 7.865,0.35717 11.57,-1.63931 10.6675,-5.74836 -0.5637,-2.56649 -2.2442,-3.40031 -9.4119,-4.67013 -11.7035,-2.07338 -16.1147,-3.80465 -20.4735,-8.03528 -3.6144,-3.50825 -4.8047,-6.44286 -4.8204,-11.88437 -0.011,-3.76126 0.2418,-4.94272 1.6211,-7.58303 3.2685,-6.25656 10.1416,-9.635424 20.8305,-10.240364 15.5295,-0.87891 26.3169,5.012574 27.9047,15.240034 0.5611,3.6146 0.09,3.82958 -8.3974,3.82958 h -7.4821 l -0.7612,-1.58752 c -1.2178,-2.53976 -3.0488,-3.13976 -9.0158,-2.95443 -6.5578,0.20368 -7.9476,1.07364 -7.6734,4.8035 0.1529,2.08031 0.4347,2.49166 2.3469,3.42616 1.1952,0.58409 4.7399,1.44366 7.8771,1.91015 15.3265,2.27895 21.6157,5.86424 23.8839,13.61538 1.8136,6.19778 -0.293,14.13016 -4.8045,18.09132 -6.2845,5.51787 -18.027,7.73327 -29.7236,5.60778 z m -478.6107,-1.00172 c -1.02747,-1.02747 -1.04309,-82.778144 -0.016,-83.805224 1.0459,-1.04591 14.69237,-0.96381 15.57001,0.0937 0.47903,0.5772 0.61796,12.16252 0.50906,42.448924 l -0.14978,41.65507 -7.59854,0.16188 c -5.41478,0.11536 -7.80437,-0.0439 -8.31474,-0.55432 z m 215.8914,0 c -1.1203,-1.12034 -1.02904,-58.42929 0.0946,-59.3618 0.54393,-0.45145 3.27992,-0.61896 8.31474,-0.50906 l 7.50398,0.16378 v 30.04976 30.04976 l -7.59856,0.16188 c -5.41474,0.11536 -7.80436,-0.0439 -8.31474,-0.55432 z m 39.10704,0.29775 c -0.5654,-0.22815 -0.72936,-5.24172 -0.72936,-22.30162 0,-16.33882 -0.18036,-22.18767 -0.70019,-22.7075 -0.41311,-0.4131 -2.39879,-0.70019 -4.84297,-0.70019 -2.44418,0 -4.42986,-0.28709 -4.84297,-0.70019 -0.9571,-0.95712 -0.9571,-12.22977 0,-13.18688 0.41451,-0.41453 2.40888,-0.70019 4.88819,-0.70019 2.64823,0 4.40401,-0.268164 4.77535,-0.729364 0.32302,-0.40115 0.6961,-3.09249 0.82908,-5.98077 0.20445,-4.44127 0.50746,-5.73936 1.96397,-8.41427 2.01497,-3.70043 5.68325,-6.645 9.89109,-7.93959 1.6046,-0.49367 6.20863,-1.05807 10.23116,-1.25421 9.4012,-0.45841 9.31577,-0.52556 9.31577,7.32197 0,3.63708 -0.25154,5.92808 -0.70018,6.37671 -0.44299,0.44299 -2.66971,0.70019 -6.062,0.70019 -7.19041,0 -7.95683,0.58016 -7.71077,5.83668 l 0.17744,3.79091 19.83867,0.148994 c 17.82167,0.13384 19.91284,0.249 20.56804,1.13263 1.06283,1.43335 1.0574,57.27095 -0.006,58.72484 -0.6419,0.87778 -1.69615,0.9844 -8.31474,0.84089 l -7.57972,-0.16435 -0.29174,-22.28996 c -0.1925,-14.70548 -0.50461,-22.50261 -0.91737,-22.91496 -0.41323,-0.41278 -4.47479,-0.57107 -11.96155,-0.46617 l -11.33594,0.15883 -0.15299,22.12141 c -0.10473,15.14307 -0.35733,22.36766 -0.80078,22.902 -0.47998,0.5783 -2.4817,0.76865 -7.72419,0.73452 -3.89176,-0.0253 -7.40432,-0.1785 -7.80547,-0.34036 z M 805.1133,89.568116 c -0.89187,-0.8919 -0.9819,-11.14923 -0.11215,-12.77446 0.54708,-1.02225 1.28281,-1.12862 7.80565,-1.12862 5.44758,0 7.36615,0.19819 7.877,0.81368 0.44456,0.5357 0.6185,2.97769 0.50904,7.14776 l -0.16624,6.33408 -7.59856,0.16188 c -5.41474,0.11536 -7.80436,-0.0439 -8.31474,-0.55432 z m 80.19451,0.29518 c -0.21396,-0.21394 -0.38901,-3.3367 -0.38901,-6.93945 0,-5.43491 0.15719,-6.61079 0.92297,-6.90464 0.50763,-0.1948 3.88032,-0.35417 7.49493,-0.35417 8.44591,0 8.50332,0.0517 8.50332,7.66049 0,3.52032 -0.25417,5.78056 -0.70019,6.22658 -0.75141,0.75143 -15.1096,1.03366 -15.83202,0.31119 z"
     id="path4" /></svg>
